HIERARCHY
ROOT joint_Root
{
	OFFSET 0.0 0.0 0.0
	CHANNELS 6 Xposition Yposition Zposition Zrotation Xrotation Yrotation 
	JOINT Hips
	{
		OFFSET -0.726466 93.3139 -2.00062
		CHANNELS 6 Xposition Yposition Zposition Zrotation Xrotation Yrotation 
		JOINT Spine
		{
			OFFSET 15.7357 0.0 0.0
			CHANNELS 6 Xposition Yposition Zposition Zrotation Xrotation Yrotation 
			JOINT Chest
			{
				OFFSET 8.98455 -0.406207 0.0
				CHANNELS 6 Xposition Yposition Zposition Zrotation Xrotation Yrotation 
				JOINT Neck
				{
					OFFSET 16.3773 0.0 0.0
					CHANNELS 6 Xposition Yposition Zposition Zrotation Xrotation Yrotation 
					JOINT Head
					{
						OFFSET 6.45672 0.0 0.0
						CHANNELS 6 Xposition Yposition Zposition Zrotation Xrotation Yrotation 
						End Site
						{
							OFFSET 0.0 0.0 0.0
						}
					}
				}
				JOINT Shoulder_L
				{
					OFFSET 12.9942 -0.242716 4.98039
					CHANNELS 6 Xposition Yposition Zposition Zrotation Xrotation Yrotation 
					JOINT UpperArm_L
					{
						OFFSET 5.34809 0.0 0.0
						CHANNELS 6 Xposition Yposition Zposition Zrotation Xrotation Yrotation 
						JOINT LowerArm_L
						{
							OFFSET 24.3286 1.87007e-05 0.0
							CHANNELS 6 Xposition Yposition Zposition Zrotation Xrotation Yrotation 
							JOINT Hand_L
							{
								OFFSET 22.2916 0.0 0.0
								CHANNELS 6 Xposition Yposition Zposition Zrotation Xrotation Yrotation 
								End Site
								{
									OFFSET 0.0 0.0 0.0
								}
							}
						}
					}
				}
				JOINT Shoulder_R
				{
					OFFSET 12.9945 -0.242716 -4.98039
					CHANNELS 6 Xposition Yposition Zposition Zrotation Xrotation Yrotation 
					JOINT UpperArm_R
					{
						OFFSET -5.34813 0.0 0.0
						CHANNELS 6 Xposition Yposition Zposition Zrotation Xrotation Yrotation 
						JOINT LowerArm_R
						{
							OFFSET -24.3289 0.000322201 0.0
							CHANNELS 6 Xposition Yposition Zposition Zrotation Xrotation Yrotation 
							JOINT Hand_R
							{
								OFFSET -22.2915 -0.000108084 0.0
								CHANNELS 6 Xposition Yposition Zposition Zrotation Xrotation Yrotation 
								End Site
								{
									OFFSET 0.0 0.0 0.0
								}
							}
						}
					}
				}
			}
		}
		JOINT UpperLeg_L
		{
			OFFSET -2.19248 -6.46944 0.0
			CHANNELS 6 Xposition Yposition Zposition Zrotation Xrotation Yrotation 
			JOINT LowerLeg_L
			{
				OFFSET 39.0811 0.0 -1.23785e-05
				CHANNELS 6 Xposition Yposition Zposition Zrotation Xrotation Yrotation 
				JOINT Foot_L
				{
					OFFSET 40.9854 0.0 -1.26872e-05
					CHANNELS 6 Xposition Yposition Zposition Zrotation Xrotation Yrotation 
					JOINT Toes_L
					{
						OFFSET 11.7543 0.0 0.0
						CHANNELS 6 Xposition Yposition Zposition Zrotation Xrotation Yrotation 
						End Site
						{
							OFFSET 0.0 0.0 0.0
						}
					}
				}
			}
		}
		JOINT UpperLeg_R
		{
			OFFSET -2.19251 6.46944 0.0
			CHANNELS 6 Xposition Yposition Zposition Zrotation Xrotation Yrotation 
			JOINT LowerLeg_R
			{
				OFFSET -39.0811 -0.00228153 -0.0401928
				CHANNELS 6 Xposition Yposition Zposition Zrotation Xrotation Yrotation 
				JOINT Foot_R
				{
					OFFSET -40.9854 0.0 0.0
					CHANNELS 6 Xposition Yposition Zposition Zrotation Xrotation Yrotation 
					JOINT Toes_R
					{
						OFFSET -11.7543 0.0 0.0
						CHANNELS 6 Xposition Yposition Zposition Zrotation Xrotation Yrotation 
						End Site
						{
							OFFSET 0.0 0.0 0.0
						}
					}
				}
			}
		}
	}
}
MOTION
Frames:	4
Frame Time:	0.0333333
0.000000 0.000000 0.000000 0.000000 0.000000 -0.000000 -1.310930 92.045100 -1.320590 87.464400 -1.495560 3.114720 15.735700 0.000005 -0.000001 86.283200 85.974200 -85.667400 8.984550 -0.406207 -0.000000 0.271910 -0.562047 1.232030 16.377300 -0.000001 -0.000001 0.392095 -3.049210 1.415290 6.456720 -0.000001 -0.000000 3.257010 -2.031320 -2.727540 12.994200 -0.242716 4.980390 -89.905000 -0.307772 -72.849400 5.348090 -0.000007 -0.000001 -67.004700 36.469800 -14.567600 24.328600 0.000019 0.000005 2.654290 6.007230 -23.890900 22.291600 -0.000001 0.000005 5.486970 5.530150 -7.801690 12.994500 -0.242716 -4.980390 88.076900 5.659780 -71.198300 -5.348130 -0.000001 -0.000004 -66.075600 35.148600 -15.016800 -24.328900 0.000322 -0.000009 2.366380 5.666340 -22.720400 -22.291500 -0.000108 -0.000004 10.165600 5.549240 -8.665870 -2.192480 -6.469440 -0.000000 -168.619000 -15.077100 -2.190110 39.081100 -0.000007 -0.000012 -0.191406 0.488159 21.410300 40.985400 -0.000006 -0.000013 -6.060760 3.528800 -64.240000 11.754300 -0.000000 0.000003 -0.000027 -0.000333 -16.590600 -2.192510 6.469440 -0.000001 175.023000 20.141900 179.506000 -39.081100 -0.002282 -0.040193 -0.052038 0.159548 19.136000 -40.985400 0.000008 0.000006 -3.143130 3.237090 -63.573400 -11.754300 -0.000006 -0.000006 -0.006470 -0.075045 -19.627700
0.000000 0.000000 0.000000 0.000000 0.000000 -0.000000 -1.300770 92.065400 -1.357640 87.471000 -1.550940 3.008880 15.735700 0.000005 -0.000001 86.495400 85.975900 -85.876900 8.984550 -0.406207 -0.000000 0.270286 -0.532269 1.237460 16.377300 -0.000001 -0.000001 0.044038 -3.040890 1.462670 6.456720 -0.000001 -0.000000 2.994030 -2.018820 -2.766300 12.994200 -0.242716 4.980390 -89.897500 -0.329817 -72.736900 5.348090 -0.000007 -0.000001 -67.095100 33.434500 -14.188500 24.328600 0.000019 0.000005 3.138660 6.764470 -24.962800 22.291600 -0.000001 0.000005 6.301940 5.540860 -8.278240 12.994500 -0.242716 -4.980390 88.130600 5.466850 -71.089300 -5.348130 -0.000001 -0.000004 -65.885500 32.766300 -14.999400 -24.328900 0.000322 -0.000009 2.724290 6.414530 -23.077500 -22.291500 -0.000108 -0.000004 11.661300 5.553200 -8.861540 -2.192480 -6.469440 -0.000000 -168.676000 -15.164500 -2.263570 39.081100 -0.000007 -0.000012 -0.187841 0.481723 21.302800 40.985400 -0.000006 -0.000013 -6.047710 3.488180 -64.160300 11.754300 -0.000000 0.000003 -0.000036 -0.000424 -16.594100 -2.192510 6.469440 -0.000001 175.085000 20.099900 179.384000 -39.081100 -0.002282 -0.040193 -0.048345 0.149559 19.058700 -40.985400 0.000008 0.000006 -3.003390 3.214970 -63.509400 -11.754300 -0.000006 -0.000006 -0.006175 -0.072414 -19.520400
0.000000 0.000000 0.000000 0.000000 0.000000 -0.000000 -1.289950 92.082400 -1.409740 87.481000 -1.595990 2.895030 15.735700 0.000005 -0.000001 86.502700 86.011800 -85.887300 8.984550 -0.406207 -0.000000 0.198720 -0.527077 1.230850 16.377300 -0.000001 -0.000001 -0.205685 -2.974550 1.473250 6.456720 -0.000001 -0.000000 2.583070 -1.950460 -2.678930 12.994200 -0.242716 4.980390 -89.882000 -0.369567 -72.297700 5.348090 -0.000007 -0.000001 -66.469300 28.871400 -14.042500 24.328600 0.000019 0.000005 3.886410 7.736200 -26.777700 22.291600 -0.000001 0.000005 8.201700 5.535130 -8.026530 12.994500 -0.242716 -4.980390 88.159400 5.237330 -70.604900 -5.348130 -0.000001 -0.000004 -65.160600 28.753700 -15.383300 -24.328900 0.000322 -0.000009 3.044120 6.950440 -23.731400 -22.291500 -0.000108 -0.000004 13.532700 5.541710 -8.322750 -2.192480 -6.469440 -0.000000 -168.738000 -15.178300 -2.367600 39.081100 -0.000007 -0.000012 -0.184191 0.474596 21.211600 40.985400 -0.000006 -0.000013 -6.040160 3.450490 -64.085100 11.754300 -0.000000 0.000003 -0.000026 -0.000323 -16.590200 -2.192510 6.469440 -0.000001 175.131000 20.134200 179.238000 -39.081100 -0.002282 -0.040193 -0.045440 0.141582 19.004400 -40.985400 0.000008 0.000006 -2.897010 3.280020 -63.440300 -11.754300 -0.000006 -0.000006 -0.006337 -0.073863 -19.579500
0.000000 0.000000 0.000000 0.000000 0.000000 -0.000000 -1.279290 92.106500 -1.493930 87.460700 -1.677700 2.710810 15.735700 0.000005 -0.000001 86.700900 86.111800 -86.080500 8.984550 -0.406207 -0.000000 0.000412 -0.489441 1.240000 16.377300 -0.000001 -0.000001 -0.270251 -2.924920 1.484330 6.456720 -0.000001 -0.000000 2.036810 -1.861010 -2.555980 12.994200 -0.242716 4.980390 -89.891100 -0.333800 -71.932700 5.348090 -0.000007 -0.000001 -64.787000 22.664600 -14.380500 24.328600 0.000019 0.000005 4.118920 7.595340 -28.582100 22.291600 -0.000001 0.000005 9.697460 5.548050 -8.611610 12.994500 -0.242716 -4.980390 88.236800 4.908090 -70.210900 -5.348130 -0.000001 -0.000004 -63.775800 23.078100 -15.985600 -24.328900 0.000322 -0.000009 3.070100 6.660170 -24.825700 -22.291500 -0.000108 -0.000004 14.773200 5.535450 -8.040940 -2.192480 -6.469440 -0.000000 -168.795000 -15.233800 -2.551670 39.081100 -0.000007 -0.000012 -0.182986 0.473917 21.112500 40.985400 -0.000006 -0.000013 -6.032830 3.375430 -63.989000 11.754300 -0.000000 0.000003 -0.000031 -0.000374 -16.592100 -2.192510 6.469440 -0.000001 175.246000 20.155600 179.020000 -39.081100 -0.002282 -0.040193 -0.042102 0.132765 18.888400 -40.985400 0.000008 0.000006 -2.791370 3.324680 -63.316200 -11.754300 -0.000006 -0.000006 -0.006093 -0.071681 -19.490500
